<svg width="34" height="34" viewBox="0 0 34 34" fill="none" xmlns="http://www.w3.org/2000/svg">
<path opacity="0.1" fill-rule="evenodd" clip-rule="evenodd" d="M0 17C0 7.61116 7.61116 0 17 0C26.3888 0 34 7.61116 34 17C34 26.3888 26.3888 34 17 34C7.61116 34 0 26.3888 0 17Z" fill="white"/>
<path fill-rule="evenodd" clip-rule="evenodd" d="M26.0667 16.9874C26.0667 17.6006 26.0043 18.2129 25.8816 18.8098C25.7621 19.3925 25.585 19.9645 25.353 20.5114C25.1264 21.0486 24.8452 21.5662 24.5167 22.049C24.1931 22.5287 23.8203 22.9787 23.4108 23.389C23.0004 23.7974 22.5488 24.1692 22.0693 24.4942C21.585 24.8204 21.0666 25.1012 20.5291 25.3289C19.9814 25.5596 19.408 25.7365 18.8258 25.8558C18.2282 25.9788 17.6137 26.0415 16.9996 26.0415C16.3851 26.0415 15.7706 25.9788 15.1738 25.8558C14.5907 25.7365 14.0174 25.5596 13.4702 25.3289C12.9327 25.1012 12.4138 24.8204 11.9295 24.4942C11.45 24.1693 10.9984 23.7974 10.5889 23.389C10.1789 22.9787 9.80611 22.5287 9.48204 22.049C9.1553 21.5662 8.87371 21.0485 8.64616 20.5114C8.41414 19.9645 8.23663 19.3924 8.11664 18.8098C7.99535 18.2129 7.93335 17.6006 7.93335 16.9874C7.93335 16.3738 7.99531 15.7602 8.11668 15.1647C8.23666 14.582 8.41417 14.009 8.64619 13.4631C8.87374 12.9255 9.15534 12.4074 9.48207 11.9246C9.80615 11.4445 10.1789 10.9953 10.5889 10.5846C10.9984 10.1761 11.45 9.80518 11.9295 9.48069C12.4138 9.15308 12.9327 8.87239 13.4702 8.64424C14.0174 8.41298 14.5907 8.23573 15.1738 8.11727C15.7706 7.99526 16.3851 7.93335 16.9996 7.93335C17.6137 7.93335 18.2282 7.99526 18.8259 8.11727C19.4081 8.23577 19.9814 8.41302 20.5291 8.64424C21.0666 8.87235 21.585 9.15308 22.0693 9.48069C22.5488 9.80518 23.0004 10.1761 23.4108 10.5846C23.8203 10.9953 24.1931 11.4445 24.5168 11.9246C24.8452 12.4074 25.1264 12.9255 25.353 13.4631C25.585 14.009 25.7621 14.582 25.8816 15.1647C26.0043 15.7602 26.0667 16.3738 26.0667 16.9874ZM13.6959 9.99394C11.5367 11.0121 9.92515 12.9989 9.42264 15.3932C9.62677 15.395 12.8534 15.4357 16.571 14.4494C15.2309 12.0718 13.7991 10.1315 13.6959 9.99394ZM17.2125 15.64C13.2257 16.8318 9.40007 16.746 9.26283 16.7408C9.2606 16.8239 9.25662 16.9043 9.25662 16.9874C9.25662 18.9737 10.007 20.7845 11.2405 22.1537C11.2378 22.1497 13.3568 18.3959 17.5353 17.0467C17.6362 17.0131 17.7389 16.983 17.8407 16.9538C17.6464 16.5144 17.4343 16.0741 17.2125 15.64ZM22.1131 11.1845C20.7499 9.9842 18.96 9.25612 16.9996 9.25612C16.3705 9.25612 15.7599 9.33217 15.1751 9.47275C15.2911 9.62838 16.7455 11.555 18.0696 13.9829C20.9913 12.8892 22.0941 11.2128 22.1131 11.1845ZM18.3685 18.235C18.3513 18.2407 18.334 18.2457 18.3172 18.2518C13.7487 19.8422 12.2568 23.0471 12.2407 23.0821C13.5552 24.1029 15.2039 24.7188 16.9996 24.7188C18.0719 24.7188 19.0933 24.5008 20.0226 24.106C19.9079 23.4305 19.4581 21.0627 18.3685 18.235ZM21.3264 23.3996C23.065 22.228 24.2997 20.3677 24.6442 18.2129C24.4848 18.1616 22.3185 17.4768 19.8193 17.8769C20.8349 20.6639 21.2476 22.9336 21.3264 23.3996ZM18.6656 15.1351C18.8453 15.5038 19.0194 15.8791 19.1801 16.2562C19.2372 16.3915 19.293 16.5241 19.3474 16.6567C22.0073 16.3225 24.6279 16.8848 24.7399 16.9078C24.7222 15.0749 24.0656 13.3927 22.9792 12.0758C22.9646 12.0965 21.7227 13.8883 18.6656 15.1351Z" fill="white"/>
</svg>
