<svg width="34" height="34" viewBox="0 0 34 34" fill="none" xmlns="http://www.w3.org/2000/svg">
<path opacity="0.1" fill-rule="evenodd" clip-rule="evenodd" d="M0 17C0 7.61116 7.61116 0 17 0C26.3888 0 34 7.61116 34 17C34 26.3888 26.3888 34 17 34C7.61116 34 0 26.3888 0 17Z" fill="white"/>
<path fill-rule="evenodd" clip-rule="evenodd" d="M17.0009 7.93335C14.5385 7.93335 14.2295 7.94412 13.2623 7.98813C12.2971 8.03233 11.6383 8.18514 11.0618 8.40935C10.4654 8.64093 9.95958 8.95072 9.45562 9.45487C8.95128 9.95883 8.6415 10.4647 8.40917 11.0608C8.18439 11.6375 8.03138 12.2965 7.98794 13.2614C7.94468 14.2285 7.93335 14.5377 7.93335 17.0001C7.93335 19.4625 7.94431 19.7706 7.98813 20.7377C8.03252 21.7029 8.18533 22.3618 8.40935 22.9383C8.64112 23.5346 8.9509 24.0405 9.45505 24.5444C9.95883 25.0488 10.4647 25.3593 11.0606 25.5909C11.6375 25.8151 12.2965 25.9679 13.2616 26.0121C14.2287 26.0561 14.5375 26.0669 16.9997 26.0669C19.4623 26.0669 19.7704 26.0561 20.7375 26.0121C21.7027 25.9679 22.3623 25.8151 22.9392 25.5909C23.5354 25.3593 24.0405 25.0488 24.5442 24.5444C25.0486 24.0405 25.3583 23.5346 25.5907 22.9385C25.8136 22.3618 25.9666 21.7027 26.0119 20.7379C26.0554 19.7708 26.0667 19.4625 26.0667 17.0001C26.0667 14.5377 26.0554 14.2287 26.0119 13.2616C25.9666 12.2964 25.8136 11.6375 25.5907 11.061C25.3583 10.4647 25.0486 9.95883 24.5442 9.45487C24.0399 8.95053 23.5355 8.64075 22.9387 8.40935C22.3606 8.18514 21.7014 8.03233 20.7362 7.98813C19.7691 7.94412 19.4612 7.93335 16.998 7.93335H17.0009ZM16.1875 9.56723C16.4289 9.56685 16.6982 9.56723 17.0008 9.56723C19.4217 9.56723 19.7086 9.57592 20.6646 9.61936C21.5486 9.65979 22.0283 9.8075 22.3479 9.9316C22.7711 10.0959 23.0727 10.2924 23.3899 10.6097C23.7072 10.9271 23.9037 11.2293 24.0684 11.6524C24.1925 11.9716 24.3404 12.4514 24.3806 13.3354C24.424 14.2912 24.4335 14.5783 24.4335 16.998C24.4335 19.4177 24.424 19.7048 24.3806 20.6606C24.3402 21.5446 24.1925 22.0244 24.0684 22.3436C23.904 22.7667 23.7072 23.068 23.3899 23.3852C23.0725 23.7025 22.7713 23.8989 22.3479 24.0633C22.0287 24.188 21.5486 24.3353 20.6646 24.3757C19.7088 24.4192 19.4217 24.4286 17.0008 24.4286C14.5798 24.4286 14.2929 24.4192 13.3371 24.3757C12.4531 24.3349 11.9733 24.1872 11.6535 24.0631C11.2304 23.8988 10.9282 23.7023 10.6108 23.385C10.2935 23.0676 10.0971 22.7662 9.93234 22.3429C9.80824 22.0236 9.66034 21.5439 9.62011 20.6598C9.57666 19.7041 9.56797 19.4169 9.56797 16.9957C9.56797 14.5745 9.57666 14.2889 9.62011 13.3331C9.66053 12.4491 9.80824 11.9694 9.93234 11.6498C10.0967 11.2266 10.2935 10.9244 10.6108 10.6071C10.9282 10.2897 11.2304 10.0933 11.6535 9.92858C11.9731 9.80391 12.4531 9.65658 13.3371 9.61596C14.1735 9.57819 14.4976 9.56685 16.1875 9.56496V9.56723ZM21.8406 11.0727C21.2399 11.0727 20.7526 11.5595 20.7526 12.1603C20.7526 12.761 21.2399 13.2483 21.8406 13.2483C22.4413 13.2483 22.9286 12.761 22.9286 12.1603C22.9286 11.5597 22.4413 11.0727 21.8406 11.0727ZM17.0009 12.3439C14.4295 12.3439 12.3447 14.4287 12.3447 17.0001C12.3447 19.5715 14.4295 21.6553 17.0009 21.6553C19.5723 21.6553 21.6563 19.5715 21.6563 17.0001C21.6563 14.4287 19.5723 12.3439 17.0009 12.3439ZM17.0008 13.9778C18.6699 13.9778 20.0231 15.3309 20.0231 17.0001C20.0231 18.6691 18.6699 20.0223 17.0008 20.0223C15.3316 20.0223 13.9786 18.6691 13.9786 17.0001C13.9786 15.3309 15.3316 13.9778 17.0008 13.9778Z" fill="white"/>
</svg>
