<svg width="34" height="34" viewBox="0 0 34 34" fill="none" xmlns="http://www.w3.org/2000/svg">
<path opacity="0.1" fill-rule="evenodd" clip-rule="evenodd" d="M0 17C0 7.61116 7.61116 0 17 0C26.3888 0 34 7.61116 34 17C34 26.3888 26.3888 34 17 34C7.61116 34 0 26.3888 0 17Z" fill="white"/>
<path fill-rule="evenodd" clip-rule="evenodd" d="M16.4909 13.8178L16.5265 14.4061L15.932 14.334C13.7678 14.0579 11.8771 13.1215 10.2718 11.5489L9.48697 10.7686L9.28482 11.3448C8.85673 12.6293 9.13023 13.9859 10.0221 14.8983C10.4977 15.4025 10.3907 15.4745 9.5702 15.1744C9.28482 15.0783 9.0351 15.0063 9.01132 15.0423C8.92808 15.1264 9.21347 16.2188 9.4394 16.651C9.74857 17.2512 10.3788 17.8395 11.0685 18.1876L11.6512 18.4637L10.9615 18.4757C10.2956 18.4757 10.2718 18.4877 10.3431 18.7398C10.581 19.5201 11.5204 20.3485 12.5668 20.7086L13.304 20.9607L12.6619 21.3449C11.7106 21.8971 10.5928 22.2092 9.47507 22.2332C8.93997 22.2452 8.5 22.2933 8.5 22.3293C8.5 22.4493 9.95072 23.1216 10.795 23.3857C13.3278 24.166 16.3363 23.8299 18.5956 22.4973C20.2009 21.549 21.8062 19.6642 22.5553 17.8395C22.9596 16.8671 23.3639 15.0903 23.3639 14.238C23.3639 13.6858 23.3996 13.6137 24.0655 12.9535C24.4579 12.5693 24.8265 12.1491 24.8979 12.0291C25.0168 11.801 25.0049 11.801 24.3985 12.0051C23.3877 12.3652 23.245 12.3172 23.7445 11.777C24.1131 11.3928 24.5531 10.6966 24.5531 10.4925C24.5531 10.4565 24.3747 10.5165 24.1725 10.6245C23.9585 10.7446 23.4828 10.9247 23.1261 11.0327L22.484 11.2368L21.9013 10.8406C21.5803 10.6245 21.1284 10.3844 20.8906 10.3124C20.2841 10.1443 19.3566 10.1683 18.8096 10.3604C17.3232 10.9006 16.3838 12.2932 16.4909 13.8178Z" fill="white"/>
</svg>
