<svg width="34" height="34" viewBox="0 0 34 34" fill="none" xmlns="http://www.w3.org/2000/svg">
<path opacity="0.1" fill-rule="evenodd" clip-rule="evenodd" d="M0 17C0 7.61116 7.61116 0 17 0C26.3888 0 34 7.61116 34 17C34 26.3888 26.3888 34 17 34C7.61116 34 0 26.3888 0 17Z" fill="white"/>
<path fill-rule="evenodd" clip-rule="evenodd" d="M24.0845 11.1558C24.8647 11.3699 25.4792 12.0008 25.6877 12.8019C26.0667 14.2539 26.0667 17.2834 26.0667 17.2834C26.0667 17.2834 26.0667 20.3128 25.6877 21.7649C25.4792 22.566 24.8647 23.1968 24.0845 23.4111C22.6705 23.8001 17 23.8001 17 23.8001C17 23.8001 11.3295 23.8001 9.91545 23.4111C9.1352 23.1968 8.52073 22.566 8.31219 21.7649C7.93335 20.3128 7.93335 17.2834 7.93335 17.2834C7.93335 17.2834 7.93335 14.2539 8.31219 12.8019C8.52073 12.0008 9.1352 11.3699 9.91545 11.1558C11.3295 10.7667 17 10.7667 17 10.7667C17 10.7667 22.6705 10.7667 24.0845 11.1558ZM15.3 14.7333V20.4L19.8334 17.5668L15.3 14.7333Z" fill="white"/>
</svg>
