<svg width="129" height="28" viewBox="0 0 129 28" fill="none" xmlns="http://www.w3.org/2000/svg">
<path d="M0.575348 28H10.0685C14.57 28 18.2192 24.3508 18.2192 19.8493H8.72603C4.22453 19.8493 0.575348 23.4985 0.575348 28Z" fill="#F22BB2"/>
<path d="M1 8.15069V20.137C5.5015 20.137 9.15069 16.4878 9.15069 11.9863V0C4.64919 0 1 3.64919 1 8.15069Z" fill="#8C30F5"/>
<path d="M27.4247 0H17.9315C13.43 0 9.78082 3.64919 9.78082 8.15068H19.274C23.7755 8.15068 27.4247 4.5015 27.4247 0Z" fill="#FE9A22"/>
<path d="M27.4247 19.3699V7.38358C22.9232 7.38358 19.274 11.0328 19.274 15.5343V27.5206C23.7755 27.5206 27.4247 23.8714 27.4247 19.3699Z" fill="#2EC5CE"/>
<path d="M46.596 10.44H43.74V18H41.01V10.44H38.14V8.06H46.596V10.44ZM48.6623 18.14C48.2983 18.14 47.9576 18.0793 47.6403 17.958C47.323 17.8367 47.0476 17.6733 46.8143 17.468C46.5903 17.2533 46.413 17.0013 46.2823 16.712C46.1516 16.4227 46.0863 16.11 46.0863 15.774C46.0863 15.4007 46.1656 15.06 46.3243 14.752C46.483 14.444 46.7023 14.178 46.9823 13.954C47.2623 13.73 47.5936 13.5573 47.9763 13.436C48.3683 13.3147 48.7976 13.254 49.2643 13.254C49.8616 13.254 50.3563 13.3473 50.7483 13.534V13.31C50.7483 12.9647 50.6456 12.708 50.4403 12.54C50.2443 12.372 49.9223 12.288 49.4743 12.288C49.0543 12.288 48.667 12.358 48.3123 12.498C47.9576 12.6287 47.5843 12.8247 47.1923 13.086L46.4223 11.434C47.393 10.8087 48.499 10.496 49.7403 10.496C50.9163 10.496 51.8216 10.7573 52.4563 11.28C53.091 11.8027 53.4083 12.5867 53.4083 13.632V15.06C53.4083 15.312 53.4456 15.4893 53.5203 15.592C53.595 15.6853 53.7256 15.7413 53.9123 15.76V18C53.6976 18.0467 53.4923 18.0793 53.2963 18.098C53.1096 18.126 52.9416 18.14 52.7923 18.14C52.3163 18.14 51.9523 18.056 51.7003 17.888C51.4576 17.7107 51.299 17.454 51.2243 17.118L51.1683 16.852C50.8416 17.272 50.4636 17.594 50.0343 17.818C49.605 18.0327 49.1476 18.14 48.6623 18.14ZM49.4603 16.236C49.619 16.236 49.7823 16.2127 49.9503 16.166C50.1183 16.11 50.2676 16.04 50.3983 15.956C50.501 15.8813 50.585 15.802 50.6503 15.718C50.7156 15.6247 50.7483 15.5313 50.7483 15.438V14.892C50.5896 14.836 50.417 14.7893 50.2303 14.752C50.0436 14.7147 49.8756 14.696 49.7263 14.696C49.3996 14.696 49.129 14.7753 48.9143 14.934C48.6996 15.0927 48.5923 15.2933 48.5923 15.536C48.5923 15.7413 48.6716 15.9093 48.8303 16.04C48.9983 16.1707 49.2083 16.236 49.4603 16.236ZM54.4945 14.318C54.4945 13.814 54.5832 13.3333 54.7605 12.876C54.9378 12.4093 55.1945 12.0033 55.5305 11.658C55.8758 11.3033 56.3005 11.0233 56.8045 10.818C57.3085 10.6033 57.8872 10.496 58.5405 10.496C59.4365 10.496 60.1832 10.6827 60.7805 11.056C61.3872 11.4293 61.8398 11.91 62.1385 12.498L59.5485 13.282C59.2965 12.918 58.9558 12.736 58.5265 12.736C58.1625 12.736 57.8545 12.876 57.6025 13.156C57.3505 13.4267 57.2245 13.814 57.2245 14.318C57.2245 14.822 57.3505 15.214 57.6025 15.494C57.8545 15.7647 58.1625 15.9 58.5265 15.9C58.9558 15.9 59.2965 15.718 59.5485 15.354L62.1385 16.138C61.8398 16.726 61.3872 17.2067 60.7805 17.58C60.1832 17.9533 59.4365 18.14 58.5405 18.14C57.8872 18.14 57.3085 18.0373 56.8045 17.832C56.3005 17.6173 55.8758 17.3373 55.5305 16.992C55.1945 16.6373 54.9378 16.2313 54.7605 15.774C54.5832 15.3073 54.4945 14.822 54.4945 14.318ZM67.6846 10.636H70.4986L67.6426 14.192L70.7506 18H67.6706L65.7106 15.634H65.6546V18H63.0086V10.636H65.6546V13.212H65.7106L67.6846 10.636ZM79.1214 10.44H76.2654V18H73.5354V10.44H70.6654V8.06H79.1214V10.44ZM84.781 18.14C84.249 18.14 83.787 18.0373 83.395 17.832C83.003 17.6173 82.6997 17.3093 82.485 16.908V20.982H79.825V10.636H82.135V11.742C82.3963 11.3407 82.7183 11.0327 83.101 10.818C83.4837 10.6033 83.955 10.496 84.515 10.496C85.0003 10.496 85.453 10.594 85.873 10.79C86.293 10.9767 86.6523 11.238 86.951 11.574C87.2497 11.91 87.483 12.3113 87.651 12.778C87.8283 13.2447 87.917 13.7487 87.917 14.29C87.917 14.8407 87.8377 15.354 87.679 15.83C87.5203 16.2967 87.301 16.7027 87.021 17.048C86.741 17.3933 86.4097 17.664 86.027 17.86C85.6443 18.0467 85.229 18.14 84.781 18.14ZM83.857 15.9C84.053 15.9 84.2303 15.858 84.389 15.774C84.557 15.69 84.697 15.5733 84.809 15.424C84.9303 15.2747 85.0237 15.102 85.089 14.906C85.1637 14.71 85.201 14.5 85.201 14.276C85.201 13.8093 85.0657 13.436 84.795 13.156C84.5337 12.876 84.1837 12.736 83.745 12.736C83.2503 12.736 82.8303 12.988 82.485 13.492V14.766C82.6157 15.0927 82.807 15.3633 83.059 15.578C83.311 15.7927 83.577 15.9 83.857 15.9ZM92.5011 18.14C91.8571 18.14 91.2831 18.042 90.7791 17.846C90.2751 17.6407 89.8505 17.3653 89.5051 17.02C89.1691 16.6747 88.9125 16.278 88.7351 15.83C88.5578 15.382 88.4691 14.9107 88.4691 14.416C88.4691 13.884 88.5531 13.38 88.7211 12.904C88.8985 12.428 89.1551 12.0127 89.4911 11.658C89.8365 11.3033 90.2565 11.0233 90.7511 10.818C91.2551 10.6033 91.8385 10.496 92.5011 10.496C93.1545 10.496 93.7331 10.6033 94.2371 10.818C94.7411 11.0233 95.1611 11.3033 95.4971 11.658C95.8425 12.0033 96.0991 12.4093 96.2671 12.876C96.4445 13.3333 96.5331 13.814 96.5331 14.318C96.5331 14.458 96.5238 14.6027 96.5051 14.752C96.4958 14.892 96.4818 15.018 96.4631 15.13H91.2971C91.3251 15.522 91.4698 15.8067 91.7311 15.984C91.9925 16.152 92.2771 16.236 92.5851 16.236C92.8745 16.236 93.1451 16.1707 93.3971 16.04C93.6585 15.9093 93.8311 15.7273 93.9151 15.494L96.1691 16.138C95.8705 16.726 95.4085 17.2067 94.7831 17.58C94.1671 17.9533 93.4065 18.14 92.5011 18.14ZM93.6771 13.534C93.6305 13.1793 93.4998 12.8993 93.2851 12.694C93.0705 12.4887 92.7951 12.386 92.4591 12.386C92.1231 12.386 91.8478 12.4887 91.6331 12.694C91.4185 12.8993 91.2878 13.1793 91.2411 13.534H93.6771ZM102.11 10.636H104.924L102.068 14.192L105.176 18H102.096L100.136 15.634H100.08V18H97.4344V10.636H100.08V13.212H100.136L102.11 10.636ZM108.771 18.14C108.127 18.14 107.553 18.042 107.049 17.846C106.545 17.6407 106.12 17.3653 105.775 17.02C105.439 16.6747 105.182 16.278 105.005 15.83C104.827 15.382 104.739 14.9107 104.739 14.416C104.739 13.884 104.823 13.38 104.991 12.904C105.168 12.428 105.425 12.0127 105.761 11.658C106.106 11.3033 106.526 11.0233 107.021 10.818C107.525 10.6033 108.108 10.496 108.771 10.496C109.424 10.496 110.003 10.6033 110.507 10.818C111.011 11.0233 111.431 11.3033 111.767 11.658C112.112 12.0033 112.369 12.4093 112.537 12.876C112.714 13.3333 112.803 13.814 112.803 14.318C112.803 14.458 112.793 14.6027 112.775 14.752C112.765 14.892 112.751 15.018 112.733 15.13H107.567C107.595 15.522 107.739 15.8067 108.001 15.984C108.262 16.152 108.547 16.236 108.855 16.236C109.144 16.236 109.415 16.1707 109.667 16.04C109.928 15.9093 110.101 15.7273 110.185 15.494L112.439 16.138C112.14 16.726 111.678 17.2067 111.053 17.58C110.437 17.9533 109.676 18.14 108.771 18.14ZM109.947 13.534C109.9 13.1793 109.769 12.8993 109.555 12.694C109.34 12.4887 109.065 12.386 108.729 12.386C108.393 12.386 108.117 12.4887 107.903 12.694C107.688 12.8993 107.557 13.1793 107.511 13.534H109.947ZM118.66 18.14C118.128 18.14 117.666 18.0373 117.274 17.832C116.882 17.6173 116.579 17.3093 116.364 16.908V20.982H113.704V10.636H116.014V11.742C116.275 11.3407 116.597 11.0327 116.98 10.818C117.363 10.6033 117.834 10.496 118.394 10.496C118.879 10.496 119.332 10.594 119.752 10.79C120.172 10.9767 120.531 11.238 120.83 11.574C121.129 11.91 121.362 12.3113 121.53 12.778C121.707 13.2447 121.796 13.7487 121.796 14.29C121.796 14.8407 121.717 15.354 121.558 15.83C121.399 16.2967 121.18 16.7027 120.9 17.048C120.62 17.3933 120.289 17.664 119.906 17.86C119.523 18.0467 119.108 18.14 118.66 18.14ZM117.736 15.9C117.932 15.9 118.109 15.858 118.268 15.774C118.436 15.69 118.576 15.5733 118.688 15.424C118.809 15.2747 118.903 15.102 118.968 14.906C119.043 14.71 119.08 14.5 119.08 14.276C119.08 13.8093 118.945 13.436 118.674 13.156C118.413 12.876 118.063 12.736 117.624 12.736C117.129 12.736 116.709 12.988 116.364 13.492V14.766C116.495 15.0927 116.686 15.3633 116.938 15.578C117.19 15.7927 117.456 15.9 117.736 15.9Z" fill="black"/>
</svg>
